<svg xmlns="http://www.w3.org/2000/svg" viewBox="0 0 50 50">
  <path fill="none" d="M0 0h50v50H0z"/>
  <path fill="none" stroke="currentColor" stroke-width="2" stroke-miterlimit="10" d="M30.22 35.25s4.05-2.32 5.1-2.87c1.06-.56 2.16-.7 2.82-.3 1 .62 9.47 6.24 10.18 6.74.7.5 1.05 1.93.07 3.32-.98 1.4-5.48 6.92-7.38 6.86-1.9-.06-9.85-.24-24.82-15.2C1.24 18.82 1.06 10.9 1 8.97c-.06-1.9 5.46-6.4 6.86-7.4 1.4-.96 2.82-.6 3.32.1.56.77 6.12 9.2 6.73 10.17.43.66.28 1.76-.28 2.82-.56 1.06-2.88 5.1-2.88 5.1s1.64 2.8 7.16 8.32c5.53 5.52 8.32 7.15 8.32 7.15z"/>
</svg>
