<svg xmlns="http://www.w3.org/2000/svg" viewBox="0 0 30 30">
  <path d="M26 0H3.5C1.58 0 .03 1.6 0 3.5v-.04V26.5C0 28.43 1.57 30 3.5 30h23c1.87-.07 3.5-1.6 3.5-3.5v-23C29.98 1.63 27.86.07 26 0zM15 9.5c3.04 0 5.5 2.46 5.5 5.5s-2.46 5.5-5.5 5.5-5.5-2.46-5.5-5.5 2.46-5.5 5.5-5.5zM26 24c0 1.1-.9 2-2 2H6c-1.1 0-2-.9-2-2V12.5h2.36C6.13 13.3 6 14.13 6 15c0 4.97 4.03 9 9 9s9-4.03 9-9c0-.87-.13-1.7-.36-2.5H26V24zm0-19v3.02c-.02.54-.45.97-.98.98H22c-.55 0-.98-.44-1-.98v-3V5c0-.55.45-1 1-1h3.02c.54 0 .98.45.98 1z"/>
</svg>
